<svg width="347" height="149" viewBox="0 0 347 149" fill="none" xmlns="http://www.w3.org/2000/svg">
<path d="M62.6274 0.601883C62.6274 0.941391 62.4579 1.77477 62.2422 2.45381C61.78 3.90448 60.6091 5.60208 58.8682 7.33055C57.5278 8.64233 55.9255 10.4788 55.2631 11.4202C54.5698 12.4388 54.2617 13.6734 54.3079 15.3401C54.4157 19.0903 54.4311 18.9668 53.8149 20.2169C53.0291 21.8528 52.7364 22.1923 50.9184 23.6275C47.0976 26.6369 42.4141 31.1896 39.7487 34.4922C37.9616 36.6991 38.0694 36.6219 38.1927 35.804C38.3467 34.7854 38.9014 33.7205 39.9644 32.4088C41.8132 30.1401 42.5835 27.7944 42.2908 25.3406C41.9211 22.3312 40.9659 19.0286 38.9784 13.874C38.3622 12.2845 38.0078 11.7135 38.3776 12.9018C38.5008 13.3185 38.6549 14.2444 38.7011 14.9698C38.7781 16.0809 38.7165 16.513 38.3776 17.8248C38.1465 18.6736 37.6997 20.0626 37.3761 20.9114C36.575 22.9639 35.8663 25.1862 35.6968 26.2357C35.4349 27.6709 35.8817 29.5846 36.8523 31.1587C37.8229 32.7791 38.0386 34.2298 37.5918 36.3441C37.3915 37.2855 37.1604 37.7022 35.6814 39.8936C32.8928 44.0142 30.5357 48.3508 28.7331 52.7491C27.932 54.6628 27.9782 54.6473 27.2541 53.243L26.8073 52.3942V49.0761C26.8073 45.8352 26.7919 45.7272 26.3759 44.5235C26.1294 43.8444 25.8059 43.0728 25.6364 42.795C25.2512 42.1777 23.4025 40.4492 22.1853 39.585C21.1839 38.8596 14.3588 35.341 13.9737 35.341C13.835 35.341 14.1123 35.6033 14.5591 35.912C16.3771 37.2083 17.1474 38.7516 18.1797 43.2117C18.457 44.4463 18.95 46.2365 19.2581 47.2088C19.7665 48.752 19.9052 49.0453 20.5523 49.6934C21.261 50.4033 22.74 51.2367 23.31 51.2367C24.1112 51.2367 25.1742 51.7306 25.7751 52.3787C26.4992 53.1812 26.7457 53.5979 27.177 54.9097L27.5006 55.8974L27.023 57.3018C24.6042 64.6478 23.4949 71.4227 23.4333 79.0002C23.4333 80.8676 23.3716 82.3491 23.3254 82.3182C23.0327 82.1485 22.5089 80.6052 22.0929 78.6607C21.831 77.4569 21.4458 75.9754 21.2301 75.3889C20.7525 74.0772 19.6125 72.0863 18.8884 71.3456C18.2721 70.7128 15.9611 69.1541 14.7132 68.5214C13.1417 67.7497 5.4693 65.157 5.4693 65.4194C5.4693 65.4657 5.88528 65.6972 6.37829 65.9287C8.35032 66.8546 9.78312 68.7529 11.9862 73.3673C13.5269 76.5773 14.8519 78.815 15.576 79.4632C16.639 80.4046 17.8099 80.883 19.3197 81.0219C20.9374 81.1454 21.6461 81.4849 22.6629 82.6115L23.4333 83.4448L23.6181 85.806C24.2652 93.615 25.9907 100.776 28.9796 107.983C29.4572 109.156 29.981 110.375 30.1505 110.684C30.3046 111.008 30.3662 111.27 30.2892 111.27C30.1967 111.27 29.6883 110.838 29.1491 110.298C28.4404 109.619 27.7933 108.724 26.8843 107.211C26.191 106.038 25.2204 104.557 24.712 103.924C23.6644 102.612 21.5229 100.822 20.1825 100.158C19.2889 99.7109 15.5914 98.6461 13.8196 98.3066C12.4176 98.0442 4.5141 97.5349 2.15691 97.5504L0 97.5658L1.61768 97.9053C2.51126 98.0905 3.75918 98.4609 4.39085 98.7387C5.90068 99.3869 8.35032 101.316 11.293 104.186C15.1292 107.937 17.4247 109.742 18.95 110.236C20.9528 110.869 22.324 110.946 24.4039 110.56C26.037 110.252 27.0384 110.421 28.8101 111.27C30.5973 112.134 31.0441 112.582 32.0609 114.465C35.2654 120.514 39.2249 125.9 44.1858 130.978L46.1732 133.015L45.218 132.783C43.1844 132.305 42.2754 131.78 39.8412 129.65C36.6828 126.888 35.25 125.993 32.5385 125.067C31.1211 124.589 30.5357 124.481 29.2723 124.419C27.6855 124.357 24.142 124.758 21.8002 125.252C19.1965 125.823 5.77743 130.777 5.77743 131.178C5.77743 131.24 6.178 131.178 6.67101 131.024C8.08841 130.576 9.99881 130.36 11.5395 130.453C13.4345 130.576 17.1166 131.796 20.7063 133.493C23.387 134.759 27.5776 136.395 29.2107 136.811C30.89 137.259 33.3705 137.027 35.3887 136.271C35.8663 136.101 36.9756 135.484 37.8691 134.898C38.7781 134.311 39.8258 133.756 40.2109 133.663C42.0905 133.185 44.155 133.323 46.466 134.049C47.5136 134.373 47.868 134.604 49.6551 136.086C53.8919 139.605 58.329 142.537 62.9201 144.898C65.1232 146.025 69.4216 148 69.6527 148C69.6835 148 69.7144 147.599 69.7144 147.089C69.7144 146.21 69.699 146.179 69.2214 145.978C65.1232 144.342 59.7001 141.364 55.5866 138.493C54.5082 137.737 51.6271 135.561 51.0879 135.098C50.903 134.928 50.6257 132.86 50.6103 131.564C50.6103 129.141 50.9184 128.277 52.5207 126.178C54.1846 124.002 55.032 121.409 54.8779 118.94C54.7855 117.165 53.6146 113.276 51.9199 109.063C50.8106 106.285 49.8554 103.137 49.501 101.069C49.2083 99.3406 49.6551 96.3466 50.5333 94.2632C50.5949 94.1089 50.5795 93.9854 50.5025 93.9854C50.0865 93.9854 44.1704 107.597 43.5541 109.958C42.9995 112.057 42.2908 116.193 42.2908 117.289C42.2908 118.57 42.9841 121.425 43.6466 122.891C44.3707 124.481 45.064 125.545 46.9282 127.968C47.868 129.172 48.7615 130.407 48.9156 130.715C49.2854 131.456 49.8708 133.416 49.8092 133.725C49.7475 134.064 46.4352 130.993 44.0317 128.37C39.9028 123.848 36.3131 118.848 33.8635 114.202L33.0931 112.736L33.2164 111.363C33.4167 109.202 34.0792 107.458 35.1576 106.162C35.3887 105.899 36.0666 105.359 36.6674 104.989C37.9924 104.14 38.7319 103.446 39.5947 102.242C41.2278 99.9424 41.3664 99.248 41.4435 92.4421C41.5205 87.0252 41.7054 84.3399 42.0905 83.1825C42.5219 81.8861 43.3539 80.3274 44.1242 79.3552C44.5556 78.8305 44.8483 78.3983 44.7867 78.3983C44.4785 78.3983 36.6983 86.5623 35.1576 88.4913C34.3411 89.5562 31.8914 93.6922 31.5217 94.6644C31.2135 95.4978 30.89 97.7047 30.89 99.0165C30.89 100.282 31.2906 102.257 32.0455 104.68C32.6618 106.702 32.7388 107.072 32.7234 108.369C32.7234 109.156 32.6309 110.143 32.5231 110.576L32.3382 111.347L31.9839 110.576C29.8578 105.977 28.502 102.226 27.2849 97.5349C26.0832 92.8434 25.1896 86.5005 25.1896 82.4263C25.1896 80.8984 25.2204 80.775 25.6518 80.0959C26.2527 79.17 27.5622 77.9045 28.3942 77.4878C28.7331 77.318 29.7191 77.0557 30.5665 76.9322C33.3088 76.5155 35.2654 75.4507 36.3747 73.7376C37.1759 72.5339 38.547 69.8023 39.5176 67.4874C41.2278 63.4286 42.83 61.4223 45.2951 60.1877C45.973 59.8482 46.4197 59.5704 46.2811 59.5704C45.7419 59.5704 38.1465 62.3328 35.2809 63.5829C34.2948 63.9996 30.8592 66.1756 30.0272 66.8855C29.6729 67.1942 29.0566 67.9658 28.6407 68.614C27.593 70.3116 27.1 71.8857 26.8073 74.463C26.684 75.6513 26.53 76.8242 26.4838 77.0865C26.3605 77.673 25.7905 78.815 25.3591 79.3243L25.0355 79.7101L25.1126 78.8613C25.1434 78.3983 25.2204 77.0248 25.2666 75.8365C25.4977 69.8177 26.9614 62.3328 29.1029 56.2678C29.488 55.2184 29.8886 54.1535 30.0272 53.9066C30.397 53.1658 32.1842 51.6071 33.2318 51.0978C34.3257 50.5577 34.8803 50.5114 37.2837 50.6966C38.9014 50.82 40.3496 50.5885 41.4435 50.033C42.1676 49.678 44.4939 47.3322 46.2195 45.2179C47.0976 44.1531 48.3918 42.7178 49.1159 42.0079C50.5795 40.5881 51.735 39.9554 53.5992 39.5541C54.2 39.4307 54.7238 39.2918 54.7701 39.2455C55.0474 38.9522 44.1396 39.9399 42.6606 40.3566C41.0121 40.8196 38.8398 41.5449 38.2543 41.8382C37.3915 42.2857 35.7585 43.8907 35.0652 44.9864C34.7262 45.5266 34.11 46.7921 33.7248 47.7952C33.3242 48.7983 32.8004 49.8786 32.5693 50.2027C32.1533 50.7892 30.89 51.9775 30.89 51.7768C30.89 51.7306 31.2598 50.8509 31.722 49.8478C33.2472 46.4526 36.0666 41.6221 38.4084 38.3504C39.6101 36.6991 42.1367 33.5199 42.5373 33.165C43.0303 32.7328 44.3091 32.3933 45.7573 32.3007C47.036 32.2236 47.2517 32.2544 48.5767 32.702C50.2406 33.273 52.1047 33.5199 53.4605 33.3193C54.6468 33.1495 56.8037 32.2544 59.7772 30.7112C61.0559 30.0475 62.7814 29.245 63.6288 28.921C65.1232 28.3499 65.2157 28.3345 67.2801 28.3345C68.4356 28.3191 69.36 28.2882 69.3292 28.2574C69.2214 28.1648 66.2941 27.6246 62.7198 27.0536C59.4074 26.5135 58.9298 26.4672 55.8485 26.4826C52.6132 26.4826 52.5053 26.4826 51.4885 26.8993C49.5473 27.6709 48.5767 28.2882 46.9744 29.8006C45.4491 31.2667 45.1102 31.5137 43.9393 32.0075L43.3384 32.2544L44.1088 31.3593C46.7587 28.2882 52.1972 23.6121 56.4648 20.6953C58.5755 19.2601 59.2071 19.0594 61.3949 19.0749C63.1666 19.0903 63.8291 19.2755 65.154 20.078C66.972 21.2046 69.3908 21.7756 71.0701 21.4669C72.5337 21.2046 75.4456 20.4484 76.7859 20.0008C77.4176 19.7848 78.8196 19.4144 79.9289 19.1983C81.5619 18.8742 82.1474 18.8125 83.0872 18.9051C84.1502 18.9977 85.3365 19.2446 86.1223 19.5379C86.338 19.615 86.3842 19.5996 86.2763 19.4915C86.0606 19.2755 82.2706 17.8403 78.6501 16.6056C75.3839 15.5099 72.1178 14.8 70.2536 14.7846C68.9286 14.7846 67.2031 15.1395 66.0784 15.6488C65.6162 15.8649 64.4916 16.513 63.5826 17.1149C62.6736 17.7014 61.7954 18.2261 61.6259 18.2724C60.9327 18.473 59.8696 18.6273 59.9466 18.5039C60.1777 18.118 65.8011 15.2167 67.9426 14.3833L69.3292 13.8432L71.748 13.874C74.2901 13.9049 74.7831 13.8277 76.5548 13.1641C77.51 12.8092 77.8336 12.5623 79.5437 10.8955C81.4695 9.01273 83.2258 6.77498 86.0144 2.57727C87.1083 0.956833 87.3702 0.293228 86.3996 1.60501C86.1377 1.97539 85.4444 2.62357 84.8743 3.05568C84.0424 3.67299 83.4724 3.93535 81.9009 4.44463C80.8378 4.79958 79.2972 5.2317 78.4961 5.41689C76.6011 5.86444 74.6136 6.52805 73.7971 7.00647C73.0267 7.46945 72.087 8.54974 70.9007 10.3399C69.6219 12.2999 68.5435 13.087 64.2296 15.2475C60.9018 16.9143 58.2519 18.4421 55.7407 20.1552C54.693 20.8496 53.8457 21.3898 53.8457 21.3435C53.8457 21.2972 54.0768 20.9577 54.3695 20.6027C54.7393 20.1552 55.3709 19.7076 56.4648 19.1366C58.4368 18.1026 59.1917 17.5162 60.0853 16.3587C61.0097 15.155 61.287 14.4913 61.8416 12.2073C62.3192 10.2628 62.5503 8.17935 62.7044 4.47549C62.7506 3.33347 62.8277 1.85193 62.8739 1.18832C62.9355 0.401245 62.9047 0 62.7968 0C62.7044 0 62.6274 0.277786 62.6274 0.601883Z" fill="white" fill-opacity="0.05"/>
<path d="M282.082 3.0392C282.375 11.1593 283.039 14.7562 284.614 16.8866C285.572 18.1987 286.606 19.0015 288.552 19.974C289.587 20.4989 290.312 20.9775 290.76 21.456C291.115 21.842 291.378 22.1816 291.347 22.2125C291.316 22.2433 290.668 21.8574 289.926 21.3634C287.517 19.7579 284.321 17.9518 280.908 16.2845C275.92 13.8454 274.901 13.1198 273.573 11.0667C272.322 9.13698 271.473 8.28792 270.191 7.68587C269.095 7.17642 266.532 6.38911 264.771 6.0495C263.474 5.78706 261.05 4.99976 260.154 4.55206C259.722 4.33594 258.857 3.65669 258.224 3.02376C257.575 2.39082 257.035 1.88139 257.004 1.88139C256.896 1.88139 259.027 4.87625 261.003 7.53149C263.397 10.7579 265.698 13.0272 267.396 13.8454C269.172 14.7099 270.284 14.8951 272.847 14.7871C274.932 14.6944 275.117 14.7099 276.214 15.0804C277.758 15.5898 280.615 16.9174 282.947 18.1833C285.17 19.3874 285.402 19.5572 284.537 19.4183C283.24 19.1867 282.777 18.9861 281.232 17.9981C279.132 16.655 278.268 16.2691 276.461 15.8986C275.334 15.667 274.685 15.6207 273.82 15.6979C271.689 15.8831 268.709 16.5315 266.038 17.4114C262.208 18.6619 257.745 20.2828 257.745 20.4372C257.745 20.4989 257.93 20.4835 258.178 20.3909C258.919 20.0975 260.834 19.7888 261.837 19.7888C263.088 19.7888 265.482 20.2674 268.014 21.0238C274.314 22.8917 275.874 22.8917 279.626 21.0084C281.449 20.0821 281.541 20.0512 282.947 19.974C283.765 19.9432 284.892 19.9895 285.525 20.0975C286.575 20.2674 286.838 20.4063 288.923 21.7957C291.517 23.5247 294.188 25.5624 296.458 27.5384C298.713 29.4989 302.28 32.9724 302.095 33.0341C301.662 33.173 300.133 32.2314 298.836 31.0118C297.076 29.36 296.01 28.6653 294.266 27.9706L292.876 27.4303H289.17C285.757 27.4303 285.217 27.4766 282.298 27.9243C277.341 28.7116 275.195 29.113 275.195 29.2519C275.195 29.3291 275.334 29.3446 275.503 29.2828C275.982 29.1284 278.731 29.1748 279.611 29.3446C280.723 29.5607 283.07 30.5332 285.772 31.8763C287.054 32.5092 288.753 33.2965 289.556 33.6207C291.007 34.2228 291.054 34.2228 293.03 34.2074C294.868 34.2074 295.177 34.161 296.582 33.6979C298.358 33.1267 299.979 33.0341 301.492 33.4355C302.805 33.7905 302.99 33.9295 304.303 35.4578C306.635 38.1593 309.136 41.6636 311.19 45.0599C312.41 47.0667 315.267 52.6396 315.143 52.7631C315.097 52.8094 314.618 52.4081 314.078 51.8678C313.244 51.0496 312.997 50.6791 312.564 49.583C311.329 46.4492 310.48 45.1062 308.812 43.7168C306.913 42.1113 303.562 41.1387 298.188 40.6293C294.374 40.2743 289.648 40.0736 291.069 40.3206C292.196 40.5367 293.679 41.0461 294.497 41.5092C295.424 42.0496 297.447 44.0256 299.207 46.1096C301.075 48.3326 303.345 50.5093 304.241 50.9415C304.643 51.1422 305.538 51.4046 306.249 51.5436C307.376 51.7443 307.777 51.7597 309.244 51.5899C310.742 51.4201 311.051 51.4201 311.792 51.6362C312.873 51.9449 313.908 52.6087 315.05 53.7048C315.838 54.4612 316.023 54.7546 316.564 56.1285C318.278 60.559 319.699 66.0393 320.363 70.7477C320.749 73.4801 321.057 77.1234 321.057 78.9141V80.535L320.749 80.1491C319.961 79.1611 319.668 78.1886 319.359 75.7031C319.204 74.3755 318.957 72.8935 318.803 72.4304C318.371 70.9638 317.367 69.204 316.363 68.1388C315.869 67.6139 312.688 65.5607 311.175 64.7889C310.248 64.3258 303.87 61.9175 301.755 61.2537C301.029 61.0221 300.149 60.7288 299.794 60.6208C298.744 60.2812 299.022 60.5745 300.365 61.2074C302.805 62.3652 304.457 64.4647 306.434 68.957C307.777 71.9982 309.291 74.6843 310.14 75.5488C310.603 76.0119 311.329 76.5059 312.147 76.8918C313.383 77.4784 313.923 77.6328 316.224 77.9879C317.938 78.2657 319.529 79.4236 320.671 81.2143C321.011 81.7546 321.057 82.017 321.057 83.1131C321.057 85.6757 320.455 90.9399 319.807 94.2589C319.019 98.2726 317.598 103.043 316.147 106.624C315.189 108.955 313.753 112.105 313.63 112.105C313.445 112.105 313.182 110.345 313.182 109.156C313.182 108.168 313.306 107.581 313.877 105.76C314.788 102.873 315.035 101.607 315.035 99.8781C315.02 96.5436 314.742 95.71 312.472 92.0668C311.483 90.4613 310.603 89.3035 309.321 87.8987C307.005 85.3361 300.844 79.1457 300.736 79.2537C300.689 79.3155 300.998 79.7786 301.431 80.3035C302.264 81.3532 303.129 82.8815 303.515 84.0239C303.948 85.367 304.272 89.1028 304.148 91.7272C304.04 94.4442 304.272 98.8901 304.627 100.295C305.121 102.271 306.65 104.231 308.858 105.713C309.723 106.285 310.619 106.995 310.866 107.288C311.978 108.631 312.688 110.731 312.734 112.799C312.765 113.942 312.765 113.942 311.792 115.609C308.642 121.027 304.982 125.813 300.72 130.12C298.481 132.374 295.578 135.014 295.47 134.89C295.346 134.782 296.026 132.513 296.381 131.818C296.551 131.463 297.539 130.105 298.574 128.823C300.504 126.384 301.678 124.547 302.234 123.065C302.851 121.444 303.299 119.36 303.299 118.141C303.299 116.72 302.264 111.456 301.662 109.789C300.983 107.89 297.555 100.156 296.242 97.5162C294.991 95.0308 294.358 94.1663 295.069 95.8953C296.041 98.319 296.149 101.021 295.408 103.954C294.821 106.331 294.528 107.165 293.308 110.082C291.64 114.065 290.173 118.866 290.173 120.348C290.173 121.429 290.714 123.513 291.347 124.887C291.625 125.52 292.289 126.554 292.814 127.202C294.065 128.746 294.482 129.688 294.682 131.386C294.837 132.513 294.821 133.007 294.621 134.242C294.466 135.214 294.266 135.847 294.096 136.063C293.37 136.851 288.567 140.185 285.541 141.976C282.823 143.597 277.449 146.206 275.164 147.039C274.932 147.117 274.886 147.317 274.886 148.074V149L275.704 148.676C282.823 145.882 289.942 141.698 296.103 136.681C297.369 135.662 297.848 135.369 298.805 135.06C300.581 134.473 302.002 134.273 303.623 134.381C305.43 134.489 306.14 134.736 307.947 135.894C309.599 136.943 310.572 137.345 312.487 137.746C314.139 138.086 315.406 138.117 316.656 137.823C318.247 137.437 322.71 135.77 325.69 134.412C328.408 133.192 331.203 132.173 333.411 131.617C334.693 131.293 338.121 131.386 339.511 131.787C342.074 132.528 341.595 132.173 338.275 130.861C334.353 129.302 326.03 126.508 324.331 126.168C321.86 125.674 317.537 125.195 316.471 125.288C315.313 125.412 313.244 125.998 311.684 126.647C310.094 127.295 308.519 128.36 306.001 130.475C303.562 132.497 302.882 132.945 301.446 133.393C299.13 134.103 299.13 134.134 301.462 131.834C306.171 127.156 310.217 121.876 313.491 116.118C314.201 114.883 314.881 113.756 315.02 113.587C315.452 113.093 317.305 112.089 318.509 111.703C319.899 111.271 320.517 111.24 322.37 111.58C323.559 111.811 323.945 111.811 325.211 111.641C326.972 111.425 328.377 110.931 329.458 110.19C330.709 109.326 333.226 107.165 335.527 104.988C338.399 102.255 341.086 100.249 342.707 99.6003C344.035 99.0754 345.672 98.674 346.506 98.674C346.768 98.674 347 98.5968 347 98.5042C347 98.3035 344.344 98.3807 338.198 98.7666C333.782 99.0445 332.454 99.2298 329.319 100.079C326.524 100.82 325.829 101.129 324.223 102.333C322.416 103.676 321.027 105.281 319.359 107.952C318.556 109.233 317.614 110.576 317.274 110.931C316.718 111.503 315.653 112.352 315.653 112.228C315.653 112.197 316.039 111.317 316.517 110.252C319.946 102.564 321.984 94.7529 322.633 86.7254L322.818 84.3944L323.59 83.5762C324.764 82.3258 325.196 82.1251 326.864 81.9862C328.655 81.8627 330.091 81.2452 331.141 80.18C331.944 79.3618 333.565 76.6139 335.032 73.6036C336.963 69.6671 338.476 67.7683 340.483 66.8266C341.024 66.5796 341.425 66.3481 341.395 66.3172C341.163 66.0856 332.716 68.957 331.249 69.7597C329.473 70.7477 327.512 72.168 327.049 72.8163C325.566 74.8386 324.933 76.3669 324.177 79.794C323.76 81.6465 323.188 83.2366 322.941 83.2366C322.88 83.2366 322.833 81.7237 322.818 79.8712C322.802 76.1354 322.617 73.8815 322.046 70.1148C321.428 66.1011 320.316 61.5779 319.081 58.1199L318.633 56.8695L318.911 55.9587C319.282 54.7854 320.069 53.5041 320.779 52.9329C321.196 52.5933 321.721 52.3926 322.663 52.1919C324.501 51.806 325.968 50.818 326.617 49.5676C327.018 48.7957 327.96 45.6619 328.331 43.8866C328.655 42.312 329.396 39.9964 329.89 39.0084C330.276 38.252 331.651 36.8935 332.315 36.631C332.577 36.5075 332.793 36.3686 332.793 36.2914C332.793 35.8592 324.825 39.8883 323.327 41.077C321.166 42.7906 320.548 43.5161 320.007 44.89C319.513 46.1713 319.096 48.6722 319.266 49.336C319.312 49.5367 319.359 50.4321 319.374 51.3429C319.39 52.9638 319.374 53.041 318.818 54.1525C318.509 54.7854 318.201 55.2949 318.139 55.2949C318.077 55.2949 317.799 54.7237 317.506 54.0136C315.792 49.7683 312.472 43.9329 309.445 39.7803C308.302 38.2365 308.024 37.3411 308.009 35.3034V33.7442L308.812 32.3703C309.677 30.8729 310.248 29.0976 310.248 27.9552C310.248 27.0907 309.399 24.2348 308.457 21.95C307.345 19.233 306.959 17.5195 307.052 15.8522C307.098 15.0804 307.237 14.1696 307.376 13.7991C307.499 13.444 307.561 13.1507 307.499 13.1507C307.438 13.1507 307.268 13.444 307.129 13.7991C304.303 21.0855 303.747 22.938 303.299 26.4269C303.145 27.5847 303.16 27.878 303.454 28.9741C303.886 30.6567 304.488 31.8454 305.693 33.2965C306.249 33.9758 306.851 34.7785 307.005 35.0873C307.329 35.7048 307.7 37.0478 307.592 37.1559C307.546 37.2022 306.758 36.3531 305.832 35.2725C302.666 31.583 298.836 27.9706 294.42 24.5281C291.671 22.3977 290.714 20.8077 290.807 18.5538C290.915 15.7596 290.853 14.4629 290.575 13.6447C290.22 12.595 288.938 10.9895 286.591 8.62755C284.151 6.18843 283.194 4.90712 282.699 3.39426C282.483 2.74588 282.298 2.02032 282.283 1.77333C282.283 1.54176 282.205 1.20215 282.128 1.03233C282.051 0.83165 282.02 1.57265 282.082 3.0392Z" fill="white" fill-opacity="0.05"/>
</svg>
