<?xml version="1.0" encoding="iso-8859-1"?>
<!-- Generator: Adobe Illustrator 18.0.0, SVG Export Plug-In . SVG Version: 6.00 Build 0)  -->
<!DOCTYPE svg PUBLIC "-//W3C//DTD SVG 1.1//EN" "http://www.w3.org/Graphics/SVG/1.1/DTD/svg11.dtd">
<svg xmlns="http://www.w3.org/2000/svg" xmlns:xlink="http://www.w3.org/1999/xlink" version="1.1" id="Capa_1" x="0px" y="0px" viewBox="0 0 60 60" style="enable-background:new 0 0 60 60;" xml:space="preserve" width="512px" height="512px">
<g>
	<path d="M31,30c-7.168,0-13,5.832-13,13s5.832,13,13,13s13-5.832,13-13S38.168,30,31,30z M31,54c-6.065,0-11-4.935-11-11   s4.935-11,11-11s11,4.935,11,11S37.065,54,31,54z" fill="#494a4a"/>
	<path d="M35.95,38.051c-0.391-0.391-1.023-0.391-1.414,0L31,41.586l-3.536-3.535c-0.391-0.391-1.023-0.391-1.414,0   s-0.391,1.023,0,1.414L29.586,43l-3.536,3.535c-0.391,0.391-0.391,1.023,0,1.414c0.195,0.195,0.451,0.293,0.707,0.293   s0.512-0.098,0.707-0.293L31,44.414l3.536,3.535c0.195,0.195,0.451,0.293,0.707,0.293s0.512-0.098,0.707-0.293   c0.391-0.391,0.391-1.023,0-1.414L32.414,43l3.536-3.535C36.34,39.074,36.34,38.441,35.95,38.051z" fill="#494a4a"/>
	<path d="M50.975,20.194C50.448,11.194,43.029,4,34.084,4c-5.43,0-10.688,2.663-13.946,7.008c-0.075-0.039-0.155-0.066-0.231-0.103   c-0.196-0.095-0.394-0.185-0.597-0.266c-0.118-0.047-0.238-0.089-0.358-0.131c-0.197-0.069-0.397-0.13-0.6-0.185   c-0.12-0.032-0.239-0.065-0.36-0.093c-0.22-0.05-0.444-0.088-0.67-0.121c-0.105-0.016-0.209-0.036-0.315-0.048   C16.676,10.023,16.341,10,16,10c-4.962,0-9,4.037-9,9c0,0.129,0.008,0.255,0.016,0.381C2.857,21.648,0,26.399,0,31.154   C0,38.237,5.762,44,12.845,44c0.552,0,1-0.447,1-1s-0.448-1-1-1C6.865,42,2,37.135,2,31.154C2,27,4.705,22.688,8.432,20.901   L9,20.63V20c0-0.123,0.008-0.249,0.015-0.375l0.009-0.173L9.012,19.25C9.006,19.167,9,19.084,9,19c0-3.859,3.14-7,7-7   c0.309,0,0.614,0.027,0.917,0.067c0.078,0.01,0.156,0.023,0.234,0.036c0.267,0.044,0.53,0.102,0.789,0.176   c0.035,0.01,0.071,0.017,0.106,0.027c0.285,0.087,0.563,0.198,0.835,0.321c0.07,0.032,0.139,0.066,0.208,0.1   c0.241,0.119,0.477,0.25,0.705,0.398C21.72,14.374,23,16.539,23,19c0,0.553,0.448,1,1,1s1-0.447,1-1c0-2.754-1.246-5.219-3.2-6.871   C24.666,8.379,29.388,6,34.084,6c7.745,0,14.178,6.135,14.848,13.888c-1.022-0.072-2.553-0.109-4.083,0.124   c-0.546,0.083-0.921,0.593-0.838,1.139c0.075,0.495,0.501,0.85,0.987,0.85c0.05,0,0.101-0.004,0.152-0.012   c2.224-0.335,4.544-0.021,4.684-0.002C54.49,22.872,58,27.161,58,31.972C58,37.501,53.501,42,47.972,42c-0.552,0-1,0.447-1,1   s0.448,1,1,1C54.604,44,60,38.604,60,31.972C60,26.483,56.173,21.56,50.975,20.194z" fill="#494a4a"/>
</g>
<g>
</g>
<g>
</g>
<g>
</g>
<g>
</g>
<g>
</g>
<g>
</g>
<g>
</g>
<g>
</g>
<g>
</g>
<g>
</g>
<g>
</g>
<g>
</g>
<g>
</g>
<g>
</g>
<g>
</g>
</svg>
