<svg width="97" height="55" viewBox="0 0 97 55" fill="none" xmlns="http://www.w3.org/2000/svg">
<path d="M19.2529 38.6128C11.1244 40.6366 7.03079 45.19 6.00002 47.2138C8.06157 46.0332 15.3654 44.5829 28.0881 48.2257C40.8108 51.8684 54.5937 49.0689 59.8949 47.2138C62.1037 46.2019 66.6096 43.0651 66.963 38.6128C67.3165 34.1605 65.0488 30.3491 63.8707 29C64.3125 31.6983 62.6338 37.6009 52.3849 39.6247C39.5739 42.1544 29.4134 36.0831 19.2529 38.6128Z" fill="url(#paint0_linear)"/>
<path d="M83.322 28.5631C76.3219 30.8165 74.8936 35.7523 75.0545 37.9385C78.86 34.2279 85.2605 35.739 92.1356 31.2688C97.6357 27.6927 96.1098 21.2183 94.6593 18.4282C93.7969 20.8676 90.3222 26.3098 83.322 28.5631Z" fill="url(#paint1_linear)"/>
<path d="M8.33043 42.1909C2.77701 44.4624 0.462884 48.5781 -1.19209e-07 50.352C3.55517 46.629 13.9886 46.251 16.45 42.7594C18.419 39.966 18.3786 36.0282 18.1123 34.4085C17.1656 36.0562 13.8839 39.9195 8.33043 42.1909Z" fill="#EA624F"/>
<path d="M85.5404 5.78294C82.8764 7.88978 82.2637 10.4914 82.2903 11.5288C83.6397 8.94609 89.255 7.10332 90.0457 4.81801C90.6784 2.98977 90.0385 0.854414 89.6394 0.015264C89.3831 1.05997 88.2044 3.6761 85.5404 5.78294Z" fill="#EA624F"/>
<defs>
<linearGradient id="paint0_linear" x1="63.8707" y1="33.0475" x2="23.7578" y2="46.5798" gradientUnits="userSpaceOnUse">
<stop stop-color="#F5634D"/>
<stop offset="1" stop-color="#E85651"/>
</linearGradient>
<linearGradient id="paint1_linear" x1="95.5241" y1="18.1325" x2="84.9106" y2="38.7206" gradientUnits="userSpaceOnUse">
<stop stop-color="#F5944D"/>
<stop offset="1" stop-color="#EA614F"/>
</linearGradient>
</defs>
</svg>
