<svg width="146" height="102" viewBox="0 0 146 102" fill="none" xmlns="http://www.w3.org/2000/svg">
<path d="M110.514 27.547C110.58 26.0984 110.234 16.5076 110.054 11.8933L112.906 26.2612C115.529 26.3237 121.134 26.2557 122.57 25.4843C124.005 24.7128 125.497 20.9664 126.063 19.1895C125.157 22.0324 124.116 28.7168 127.203 32.7111C130.291 36.7054 135.113 38.4718 137.138 38.8557L143.281 32.0198L140.222 41.6146C137.06 42.7253 129.98 43.5861 126.958 38.1433C123.936 32.7004 122.782 31.554 122.582 31.6611C118.532 30.8933 110.449 28.9956 110.514 27.547Z" fill="#4E64DE"/>
<path d="M67.4203 33.9318L59.6926 36.9869L62.7837 39.431L69.584 36.9869C70.4083 37.3943 72.3659 38.4534 73.6024 39.431C75.1479 40.653 83.8028 39.431 89.0576 39.431H101.113C102.349 39.431 103.895 34.1355 104.513 31.4878C104.822 31.4878 105.626 31.7322 106.368 32.7098C107.295 33.9318 107.913 33.9318 107.604 33.9318C107.357 33.9318 108.531 37.5979 109.149 39.431H116.877L113.168 36.9869L110.077 32.7098C111.313 30.2657 113.539 25.7442 112.55 27.2106C111.56 28.6771 107.398 28.6363 105.44 28.4327L102.658 27.2106L103.586 22.9335L97.7126 17.4344C98.3308 18.0454 99.8763 19.7562 101.113 21.7115C102.349 23.6667 102.04 24.9702 101.731 25.3776C101.319 26.3959 100.433 28.4327 100.185 28.4327C99.9381 28.4327 101.731 30.4694 102.658 31.4878C101.525 33.3208 98.949 36.9869 97.7126 36.9869C96.167 36.9869 90.6031 36.9869 86.2757 35.7649C81.9482 34.5428 77.6207 32.7098 77.6207 33.9318C77.6207 34.9095 77.0025 35.5612 76.6934 35.7649L68.6567 32.7098C67.9354 30.4694 66.6166 25.8664 67.1112 25.3776C67.6057 24.8888 69.584 19.8784 70.5113 17.4344L67.4203 14.9903L69.584 17.4344C69.0688 18.4527 67.7294 20.9783 66.4929 22.9335C65.2565 24.8888 64.7413 25.7849 64.6383 25.9886L67.4203 33.9318Z" fill="#4D65DD"/>
<path d="M43.6408 31.2298C46.8511 34.2278 57.0173 36.2265 61.699 36.8511L63.7055 39.9741L53.1715 38.7249C51.8339 38.1003 48.7573 36.6013 47.1521 35.6019C45.5469 34.6026 42.8047 34.3527 41.6343 34.3527C42.3031 34.3527 43.0388 33.978 40.6311 32.479C38.2233 30.9799 35.2805 29.7724 34.11 29.356C32.6052 31.0216 29.0939 34.8524 27.0874 36.8511C25.0809 38.8498 20.2319 38.9331 18.0583 38.7249L0 39.9741L10.0324 36.8511C13.3765 35.8101 20.3657 33.8531 21.5696 34.3527C23.0744 34.9773 29.5955 31.2298 30.5987 29.356C31.4013 27.857 33.274 26.233 34.11 25.6084C35.9493 26.233 40.4304 28.2317 43.6408 31.2298Z" fill="#4D65DD"/>
<path d="M88.2465 90.7999C86.275 90.8249 80.549 92.8111 77.9325 93.8011L76.3505 85.6891L66.0304 88.2121L71.5068 92.4477C72.5087 93.7105 75.2027 96.2275 77.9628 96.1924C81.413 96.1486 90.2666 94.601 91.2402 93.6319C92.2138 92.6629 98.1406 93.5442 99.1385 94.4882C100.136 95.4322 100.179 98.7802 100.203 100.693C100.228 102.606 101.645 97.8048 102.607 95.8792C103.376 94.3387 106.542 95.1914 108.029 95.8103C111.809 95.9217 119.665 96.0451 120.844 95.6474C122.022 95.2497 127.947 98.5867 130.762 100.305L123.77 93.2185L107.998 93.4189C104.055 93.469 95.866 92.9991 94.6539 90.7184C93.1388 87.8675 90.7109 90.7685 88.2465 90.7999Z" fill="#4469DC"/>
</svg>
