<svg width="24" height="25" viewBox="0 0 24 25" fill="none" xmlns="http://www.w3.org/2000/svg">
<path d="M12 12.0065L21 3.00647" stroke="white" stroke-linecap="round" stroke-linejoin="round"/>
<path d="M18.3641 5.64251C16.7698 4.0514 14.6364 3.11662 12.386 3.0231C10.1355 2.92957 7.93192 3.68413 6.21114 5.13748C4.49037 6.59083 3.37776 8.63711 3.09343 10.8715C2.80911 13.1059 3.37377 15.3656 4.67571 17.2036C5.97765 19.0416 7.92203 20.324 10.1242 20.797C12.3263 21.2701 14.6258 20.8994 16.5678 19.7583C18.5097 18.6172 19.9526 16.7888 20.611 14.6347C21.2695 12.4807 21.0954 10.158 20.1234 8.1262" stroke="white" stroke-linecap="round" stroke-linejoin="round"/>
<path d="M15.1817 8.82449C14.4378 8.08055 13.4566 7.62082 12.4089 7.5252C11.3611 7.42958 10.313 7.7041 9.44665 8.30107C8.5803 8.89804 7.95052 9.7797 7.66676 10.7928C7.383 11.8059 7.4632 12.8864 7.89343 13.8466C8.32366 14.8067 9.07671 15.5857 10.0217 16.0482C10.9667 16.5107 12.0439 16.6275 13.066 16.3782C14.0882 16.129 14.9907 15.5294 15.6166 14.6838C16.2426 13.8382 16.5525 12.8 16.4924 11.7496" stroke="white" stroke-linecap="round" stroke-linejoin="round"/>
</svg>
