<svg width="24" height="24" viewBox="0 0 24 24" fill="none" xmlns="http://www.w3.org/2000/svg">
<path d="M18 3.75H6C4.75736 3.75 3.75 4.75736 3.75 6V18C3.75 19.2426 4.75736 20.25 6 20.25H18C19.2426 20.25 20.25 19.2426 20.25 18V6C20.25 4.75736 19.2426 3.75 18 3.75Z" stroke="white" stroke-linecap="round" stroke-linejoin="round"/>
<path d="M10.125 11.25C10.7463 11.25 11.25 10.7463 11.25 10.125C11.25 9.50368 10.7463 9 10.125 9C9.50368 9 9 9.50368 9 10.125C9 10.7463 9.50368 11.25 10.125 11.25Z" fill="white"/>
<path d="M13.875 15C14.4963 15 15 14.4963 15 13.875C15 13.2537 14.4963 12.75 13.875 12.75C13.2537 12.75 12.75 13.2537 12.75 13.875C12.75 14.4963 13.2537 15 13.875 15Z" fill="white"/>
</svg>
