<svg width="24" height="24" viewBox="0 0 24 24" fill="none" xmlns="http://www.w3.org/2000/svg">
<path d="M20.5203 7.22704C21.1471 7.85383 21.6443 8.59795 21.9835 9.41689C22.3227 10.2358 22.4973 11.1136 22.4973 12C22.4973 12.8864 22.3227 13.7642 21.9835 14.5831C21.6443 15.4021 21.1471 16.1462 20.5203 16.773" stroke="#7F9BBE" stroke-linecap="round" stroke-linejoin="round"/>
<path d="M7.5 15.75H3C2.80109 15.75 2.61032 15.671 2.46967 15.5303C2.32902 15.3897 2.25 15.1989 2.25 15V9C2.25 8.80109 2.32902 8.61032 2.46967 8.46967C2.61032 8.32902 2.80109 8.25 3 8.25H7.5L14.25 3V21L7.5 15.75Z" stroke="#7F9BBE" stroke-linecap="round" stroke-linejoin="round"/>
<path d="M7.5 8.25V15.75" stroke="#7F9BBE" stroke-linecap="round" stroke-linejoin="round"/>
<path d="M17.8687 9.87868C18.1472 10.1573 18.3682 10.488 18.519 10.8519C18.6697 11.2159 18.7473 11.606 18.7473 12C18.7473 12.394 18.6697 12.7841 18.519 13.148C18.3682 13.512 18.1472 13.8427 17.8687 14.1213" stroke="#7F9BBE" stroke-linecap="round" stroke-linejoin="round"/>
</svg>
